<?xml version="1.0" encoding="utf-8"?>
<!-- Generator: Adobe Illustrator 24.2.3, SVG Export Plug-In . SVG Version: 6.00 Build 0)  -->
<svg version="1.1" id="Camada_1" xmlns="http://www.w3.org/2000/svg" xmlns:xlink="http://www.w3.org/1999/xlink" x="0px" y="0px"
	 viewBox="0 0 313.32 188.7" style="enable-background:new 0 0 313.32 188.7;" xml:space="preserve">
<style type="text/css">
	.st0{fill:url(#SVGID_1_);}
	.st1{fill:url(#SVGID_2_);}
	.st2{fill:url(#SVGID_3_);}
	.st3{fill:url(#SVGID_4_);}
	.st4{fill:url(#SVGID_5_);}
	.st5{fill:url(#SVGID_6_);}
	.st6{fill:url(#SVGID_7_);}
	.st7{fill:url(#SVGID_8_);}
	.st8{fill:url(#SVGID_9_);}
	.st9{fill:url(#SVGID_10_);}
	.st10{fill:url(#SVGID_11_);}
	.st11{fill:url(#SVGID_12_);}
	.st12{fill:#EEE01E;}
	.st13{fill:url(#SVGID_13_);}
	.st14{fill:url(#SVGID_14_);}
	.st15{fill:url(#SVGID_15_);}
	.st16{fill:url(#SVGID_16_);}
	.st17{fill:url(#SVGID_17_);}
	.st18{fill:url(#SVGID_18_);}
	.st19{fill:url(#SVGID_19_);}
	.st20{fill:url(#SVGID_20_);}
	.st21{fill:url(#SVGID_21_);}
	.st22{fill:url(#SVGID_22_);}
	.st23{fill:url(#SVGID_23_);}
	.st24{fill:url(#SVGID_24_);}
	.st25{fill:#30ABE3;}
	.st26{fill:#A6C94B;}
	.st27{fill:#1DA456;}
	.st28{fill:#F1E631;}
	.st29{fill:#F18637;}
	.st30{fill:#E7353C;}
	.st31{fill:#8E8F90;}
	.st32{fill:#CAC8C8;}
	.st33{fill:#FBCA2B;}
	.st34{fill:url(#SVGID_25_);}
	.st35{fill:#020203;}
	.st36{fill:url(#SVGID_26_);}
	.st37{fill:#010202;}
	.st38{fill:url(#SVGID_27_);}
	.st39{fill:none;stroke:url(#SVGID_28_);stroke-width:4;stroke-miterlimit:10;}
	.st40{fill:url(#SVGID_29_);}
	.st41{fill:url(#SVGID_30_);}
</style>
<g>
	<linearGradient id="SVGID_1_" gradientUnits="userSpaceOnUse" x1="32.7566" y1="95.2385" x2="306.9621" y2="95.2385">
		<stop  offset="0" style="stop-color:#504999"/>
		<stop  offset="0.3127" style="stop-color:#4C6DA5"/>
		<stop  offset="1" style="stop-color:#4FB5A1"/>
	</linearGradient>
	<path class="st0" d="M277.18,5.93c-11.41,0-21.31,6.42-26.31,15.85h-48.47c-20.8,0-37.75,16.27-38.6,37.45l-0.21,22.82L32.78,81.89
		l-0.02,24.81l130.82,0.16l0.29,22.43l-0.04,0c0.84,20.78,17.79,37.06,38.59,37.06h16.92c4.52,10.69,15.1,18.19,27.44,18.19
		c16.45,0,29.78-13.33,29.78-29.78c0-16.45-13.33-29.78-29.78-29.78c-11.69,0-21.78,6.76-26.66,16.56h-17.71
		c-7.3,0-13.23-5.6-13.75-12.83l-0.41-31.35l0.33-37.53c0.3-7.43,6.37-13.25,13.81-13.25h47.07c4.35,11.06,15.1,18.91,27.7,18.91
		c16.45,0,29.78-13.33,29.78-29.78C306.96,19.27,293.63,5.93,277.18,5.93z"/>
	<circle class="st35" cx="39.03" cy="94.97" r="29.78"/>
</g>
</svg>
