<?xml version="1.0" encoding="utf-8"?>
<!-- Generator: Adobe Illustrator 24.2.3, SVG Export Plug-In . SVG Version: 6.00 Build 0)  -->
<svg version="1.1" id="Camada_1" xmlns="http://www.w3.org/2000/svg" xmlns:xlink="http://www.w3.org/1999/xlink" x="0px" y="0px"
	 viewBox="0 0 336.83 332.31" style="enable-background:new 0 0 336.83 332.31;" xml:space="preserve">
<style type="text/css">
	.st0{fill:url(#SVGID_1_);}
	.st1{fill:url(#SVGID_2_);}
	.st2{fill:url(#SVGID_3_);}
	.st3{fill:url(#SVGID_4_);}
	.st4{fill:url(#SVGID_5_);}
	.st5{fill:url(#SVGID_6_);}
	.st6{fill:url(#SVGID_7_);}
	.st7{fill:url(#SVGID_8_);}
	.st8{fill:url(#SVGID_9_);}
	.st9{fill:url(#SVGID_10_);}
	.st10{fill:url(#SVGID_11_);}
	.st11{fill:url(#SVGID_12_);}
	.st12{fill:#EEE01E;}
	.st13{fill:url(#SVGID_13_);}
	.st14{fill:url(#SVGID_14_);}
	.st15{fill:url(#SVGID_15_);}
	.st16{fill:url(#SVGID_16_);}
	.st17{fill:url(#SVGID_17_);}
	.st18{fill:url(#SVGID_18_);}
	.st19{fill:url(#SVGID_19_);}
	.st20{fill:url(#SVGID_20_);}
	.st21{fill:url(#SVGID_21_);}
	.st22{fill:url(#SVGID_22_);}
	.st23{fill:url(#SVGID_23_);}
	.st24{fill:url(#SVGID_24_);}
	.st25{fill:#30ABE3;}
	.st26{fill:#A6C94B;}
	.st27{fill:#1DA456;}
	.st28{fill:#F1E631;}
	.st29{fill:#F18637;}
	.st30{fill:#E7353C;}
	.st31{fill:#8E8F90;}
	.st32{fill:#CAC8C8;}
	.st33{fill:#FBCA2B;}
	.st34{fill:url(#SVGID_25_);}
	.st35{fill:#020203;}
	.st36{fill:url(#SVGID_26_);}
	.st37{fill:#010202;}
	.st38{fill:url(#SVGID_27_);}
	.st39{fill:none;stroke:url(#SVGID_28_);stroke-width:4;stroke-miterlimit:10;}
	.st40{fill:url(#SVGID_29_);}
	.st41{fill:url(#SVGID_30_);}
</style>
<g>
	<linearGradient id="SVGID_1_" gradientUnits="userSpaceOnUse" x1="167.2117" y1="131.5928" x2="162.7915" y2="311.9402">
		<stop  offset="0" style="stop-color:#65968A"/>
		<stop  offset="0.1428" style="stop-color:#79A894"/>
		<stop  offset="0.312" style="stop-color:#88B59B"/>
		<stop  offset="0.5335" style="stop-color:#91BD9F"/>
		<stop  offset="1" style="stop-color:#93BFA1"/>
	</linearGradient>
	<path class="st0" d="M205.33,77.68c-0.12,0-0.24,0.02-0.36,0.02l-0.04-0.18c-0.1,0.02-10.6,2-27.24-12.09
		c-19.34-16.36-22.01-29.79-22.23-35c0.09-0.82,0.14-1.64,0.14-2.48c0-12.82-10.39-23.21-23.21-23.21
		c-12.82,0-23.21,10.39-23.21,23.21c0,12.82,10.39,23.21,23.21,23.21c0.07,0,0.13-0.01,0.19-0.01l0.04,0.27
		c0.12-0.02,11.82-1.71,28.5,12.41c19.15,16.2,21.18,29.78,21.09,35.2c-0.03,0.44-0.06,0.88-0.07,1.32
		c-0.07,0.77-0.17,1.19-0.18,1.21l0.19,0.05c0.38,12.48,10.6,22.48,23.17,22.48c12.82,0,23.21-10.39,23.21-23.21
		C228.53,88.07,218.14,77.68,205.33,77.68z"/>
	<linearGradient id="SVGID_2_" gradientUnits="userSpaceOnUse" x1="82.2146" y1="129.5095" x2="77.7943" y2="309.8569">
		<stop  offset="0" style="stop-color:#65968A"/>
		<stop  offset="0.1428" style="stop-color:#79A894"/>
		<stop  offset="0.312" style="stop-color:#88B59B"/>
		<stop  offset="0.5335" style="stop-color:#91BD9F"/>
		<stop  offset="1" style="stop-color:#93BFA1"/>
	</linearGradient>
	<path class="st1" d="M111.52,90c-0.06,0.11-0.1,0.22-0.15,0.33l-0.18-0.05c-0.03,0.1-3.15,10.48-23.62,18.89
		c-23.78,9.77-37.12,5.89-41.92,3.66c-0.69-0.46-1.42-0.89-2.17-1.28c-11.54-5.99-25.76-1.49-31.75,10.05
		c-5.99,11.54-1.49,25.76,10.05,31.75c11.54,5.99,25.76,1.49,31.75-10.05c0.03-0.06,0.05-0.12,0.08-0.18l0.26,0.08
		c0.04-0.12,3.99-11.44,24.5-19.86c23.54-9.67,36.72-5.15,41.57-2.54c0.38,0.24,0.76,0.46,1.16,0.68c0.66,0.42,0.99,0.71,1.01,0.73
		l0.13-0.14c11.42,5.49,25.21,0.97,31.09-10.36c5.99-11.54,1.49-25.76-10.05-31.75C131.73,73.95,117.52,78.45,111.52,90z"/>
	<linearGradient id="SVGID_3_" gradientUnits="userSpaceOnUse" x1="86.4044" y1="129.6122" x2="81.9841" y2="309.9596">
		<stop  offset="0" style="stop-color:#65968A"/>
		<stop  offset="0.1428" style="stop-color:#79A894"/>
		<stop  offset="0.312" style="stop-color:#88B59B"/>
		<stop  offset="0.5335" style="stop-color:#91BD9F"/>
		<stop  offset="1" style="stop-color:#93BFA1"/>
	</linearGradient>
	<path class="st2" d="M77.73,176.83c0.06,0.11,0.13,0.2,0.2,0.31l-0.14,0.12c0.07,0.08,7.07,8.35,2.98,30.1
		c-4.75,25.26-15.27,34.35-19.76,37.15c-0.76,0.33-1.52,0.7-2.26,1.12c-11.31,6.42-15.28,20.8-8.86,32.11
		c6.42,11.31,20.8,15.28,32.11,8.86c11.31-6.42,15.28-20.8,8.86-32.11c-0.03-0.06-0.07-0.11-0.11-0.17l0.21-0.17
		c-0.08-0.09-7.42-9.57-3.32-31.37c4.71-25.01,15.67-33.61,20.5-36.25c0.4-0.19,0.8-0.39,1.2-0.6c0.71-0.32,1.13-0.45,1.16-0.45
		l-0.05-0.19c10.82-6.59,14.54-20.62,8.24-31.71c-6.42-11.31-20.8-15.28-32.11-8.86C75.28,151.14,71.31,165.52,77.73,176.83z"/>
	<linearGradient id="SVGID_4_" gradientUnits="userSpaceOnUse" x1="172.4597" y1="131.7214" x2="168.0395" y2="312.0688">
		<stop  offset="0" style="stop-color:#65968A"/>
		<stop  offset="0.1428" style="stop-color:#79A894"/>
		<stop  offset="0.312" style="stop-color:#88B59B"/>
		<stop  offset="0.5335" style="stop-color:#91BD9F"/>
		<stop  offset="1" style="stop-color:#93BFA1"/>
	</linearGradient>
	<path class="st3" d="M132.04,252.93c0.12,0,0.24-0.02,0.36-0.02l0.04,0.18c0.11-0.02,10.73-2.13,27.76,12.01
		c19.78,16.42,22.61,30.03,22.88,35.31c-0.08,0.83-0.12,1.67-0.12,2.52c0.12,13.01,10.76,23.45,23.77,23.33
		c13.01-0.12,23.45-10.76,23.33-23.77c-0.12-13.01-10.76-23.45-23.77-23.33c-0.07,0-0.13,0.01-0.2,0.01l-0.05-0.27
		c-0.12,0.02-11.97,1.84-29.03-12.33c-19.58-16.26-21.77-30.02-21.73-35.53c0.03-0.44,0.05-0.89,0.06-1.34
		c0.06-0.78,0.16-1.21,0.17-1.23l-0.19-0.05c-0.51-12.66-10.96-22.72-23.72-22.6c-13.01,0.12-23.45,10.76-23.33,23.77
		C108.39,242.61,119.03,253.06,132.04,252.93z"/>
	<linearGradient id="SVGID_5_" gradientUnits="userSpaceOnUse" x1="258.0146" y1="133.8183" x2="253.5943" y2="314.1657">
		<stop  offset="0" style="stop-color:#65968A"/>
		<stop  offset="0.1428" style="stop-color:#79A894"/>
		<stop  offset="0.312" style="stop-color:#88B59B"/>
		<stop  offset="0.5335" style="stop-color:#91BD9F"/>
		<stop  offset="1" style="stop-color:#93BFA1"/>
	</linearGradient>
	<path class="st4" d="M225.86,240.27c0.06-0.11,0.11-0.22,0.17-0.32l0.17,0.06c0.04-0.1,3.62-10.33,24.45-17.8
		c24.19-8.68,37.35-4.21,42.04-1.76c0.67,0.49,1.38,0.95,2.11,1.38c11.26,6.51,25.67,2.65,32.17-8.61
		c6.51-11.26,2.65-25.67-8.61-32.17c-11.26-6.51-25.67-2.65-32.17,8.61c-0.03,0.06-0.06,0.12-0.09,0.18l-0.26-0.1
		c-0.04,0.12-4.5,11.25-25.37,18.74c-23.96,8.6-36.92,3.49-41.64,0.66c-0.37-0.25-0.74-0.49-1.13-0.73
		c-0.64-0.45-0.96-0.75-0.98-0.77l-0.14,0.14c-11.16-6-25.14-2.1-31.52,8.94c-6.51,11.26-2.65,25.67,8.61,32.17
		C204.95,255.39,219.35,251.53,225.86,240.27z"/>
	<linearGradient id="SVGID_6_" gradientUnits="userSpaceOnUse" x1="254.239" y1="133.7258" x2="249.8188" y2="314.0732">
		<stop  offset="0" style="stop-color:#65968A"/>
		<stop  offset="0.1428" style="stop-color:#79A894"/>
		<stop  offset="0.312" style="stop-color:#88B59B"/>
		<stop  offset="0.5335" style="stop-color:#91BD9F"/>
		<stop  offset="1" style="stop-color:#93BFA1"/>
	</linearGradient>
	<path class="st5" d="M259.68,153.9c-0.06-0.11-0.13-0.21-0.18-0.31l0.14-0.12c-0.07-0.09-6.73-8.63-1.75-30.19
		c5.78-25.05,16.65-33.7,21.25-36.32c0.78-0.3,1.55-0.64,2.3-1.03c11.56-5.96,16.11-20.16,10.15-31.72
		c-5.96-11.56-20.16-16.11-31.72-10.15c-11.56,5.96-16.11,20.16-10.15,31.72c0.03,0.06,0.07,0.11,0.1,0.17l-0.22,0.16
		c0.07,0.1,7.03,9.87,2.04,31.48c-5.72,24.8-17.03,32.94-21.96,35.38c-0.41,0.17-0.82,0.36-1.22,0.55c-0.73,0.29-1.15,0.4-1.18,0.41
		l0.04,0.19c-11.08,6.15-15.36,20.01-9.52,31.35c5.96,11.56,20.16,16.11,31.72,10.15C261.09,179.67,265.64,165.47,259.68,153.9z"/>
	<linearGradient id="SVGID_7_" gradientUnits="userSpaceOnUse" x1="204.4611" y1="132.5058" x2="200.0408" y2="312.8531">
		<stop  offset="0" style="stop-color:#65968A"/>
		<stop  offset="0.1428" style="stop-color:#79A894"/>
		<stop  offset="0.312" style="stop-color:#88B59B"/>
		<stop  offset="0.5335" style="stop-color:#91BD9F"/>
		<stop  offset="1" style="stop-color:#93BFA1"/>
	</linearGradient>
	<circle class="st6" cx="206.98" cy="29.61" r="24.2"/>
	<linearGradient id="SVGID_8_" gradientUnits="userSpaceOnUse" x1="305.0173" y1="134.9704" x2="300.597" y2="315.3177">
		<stop  offset="0" style="stop-color:#65968A"/>
		<stop  offset="0.1428" style="stop-color:#79A894"/>
		<stop  offset="0.312" style="stop-color:#88B59B"/>
		<stop  offset="0.5335" style="stop-color:#91BD9F"/>
		<stop  offset="1" style="stop-color:#93BFA1"/>
	</linearGradient>
	<circle class="st7" cx="305.11" cy="131.06" r="24.2"/>
	<linearGradient id="SVGID_9_" gradientUnits="userSpaceOnUse" x1="271.2224" y1="134.1421" x2="266.8022" y2="314.4894">
		<stop  offset="0" style="stop-color:#65968A"/>
		<stop  offset="0.1428" style="stop-color:#79A894"/>
		<stop  offset="0.312" style="stop-color:#88B59B"/>
		<stop  offset="0.5335" style="stop-color:#91BD9F"/>
		<stop  offset="1" style="stop-color:#93BFA1"/>
	</linearGradient>
	<circle class="st8" cx="267.98" cy="266.32" r="24.2"/>
	<linearGradient id="SVGID_10_" gradientUnits="userSpaceOnUse" x1="136.2737" y1="130.8345" x2="131.8535" y2="311.1819">
		<stop  offset="0" style="stop-color:#65968A"/>
		<stop  offset="0.1428" style="stop-color:#79A894"/>
		<stop  offset="0.312" style="stop-color:#88B59B"/>
		<stop  offset="0.5335" style="stop-color:#91BD9F"/>
		<stop  offset="1" style="stop-color:#93BFA1"/>
	</linearGradient>
	<circle class="st9" cx="132.06" cy="302.78" r="24.2"/>
	<linearGradient id="SVGID_11_" gradientUnits="userSpaceOnUse" x1="34.441" y1="128.3386" x2="30.0207" y2="308.686">
		<stop  offset="0" style="stop-color:#65968A"/>
		<stop  offset="0.1428" style="stop-color:#79A894"/>
		<stop  offset="0.312" style="stop-color:#88B59B"/>
		<stop  offset="0.5335" style="stop-color:#91BD9F"/>
		<stop  offset="1" style="stop-color:#93BFA1"/>
	</linearGradient>
	<circle class="st10" cx="32.6" cy="203.33" r="24.2"/>
	<linearGradient id="SVGID_12_" gradientUnits="userSpaceOnUse" x1="65.5365" y1="129.1007" x2="61.1162" y2="309.4481">
		<stop  offset="0" style="stop-color:#65968A"/>
		<stop  offset="0.1428" style="stop-color:#79A894"/>
		<stop  offset="0.312" style="stop-color:#88B59B"/>
		<stop  offset="0.5335" style="stop-color:#91BD9F"/>
		<stop  offset="1" style="stop-color:#93BFA1"/>
	</linearGradient>
	<circle class="st11" cx="67.08" cy="66.08" r="24.2"/>
	<circle class="st12" cx="169.85" cy="166.2" r="24.2"/>
</g>
</svg>
