<?xml version="1.0" encoding="utf-8"?>
<!-- Generator: Adobe Illustrator 24.2.3, SVG Export Plug-In . SVG Version: 6.00 Build 0)  -->
<svg version="1.1" id="Camada_1" xmlns="http://www.w3.org/2000/svg" xmlns:xlink="http://www.w3.org/1999/xlink" x="0px" y="0px"
	 viewBox="0 0 258.94 265.85" style="enable-background:new 0 0 258.94 265.85;" xml:space="preserve">
<style type="text/css">
	.st0{fill:url(#SVGID_1_);}
	.st1{fill:url(#SVGID_2_);}
	.st2{fill:url(#SVGID_3_);}
	.st3{fill:url(#SVGID_4_);}
	.st4{fill:url(#SVGID_5_);}
	.st5{fill:url(#SVGID_6_);}
	.st6{fill:url(#SVGID_7_);}
	.st7{fill:url(#SVGID_8_);}
	.st8{fill:url(#SVGID_9_);}
	.st9{fill:url(#SVGID_10_);}
	.st10{fill:url(#SVGID_11_);}
	.st11{fill:url(#SVGID_12_);}
	.st12{fill:#EEE01E;}
	.st13{fill:url(#SVGID_13_);}
	.st14{fill:url(#SVGID_14_);}
	.st15{fill:url(#SVGID_15_);}
	.st16{fill:url(#SVGID_16_);}
	.st17{fill:url(#SVGID_17_);}
	.st18{fill:url(#SVGID_18_);}
	.st19{fill:url(#SVGID_19_);}
	.st20{fill:url(#SVGID_20_);}
	.st21{fill:url(#SVGID_21_);}
	.st22{fill:url(#SVGID_22_);}
	.st23{fill:url(#SVGID_23_);}
	.st24{fill:url(#SVGID_24_);}
	.st25{fill:#30ABE3;}
	.st26{fill:#A6C94B;}
	.st27{fill:#1DA456;}
	.st28{fill:#F1E631;}
	.st29{fill:#F18637;}
	.st30{fill:#E7353C;}
	.st31{fill:#8E8F90;}
	.st32{fill:#CAC8C8;}
	.st33{fill:#FBCA2B;}
	.st34{fill:url(#SVGID_25_);}
	.st35{fill:#020203;}
	.st36{fill:url(#SVGID_26_);}
	.st37{fill:#010202;}
	.st38{fill:url(#SVGID_27_);}
	.st39{fill:none;stroke:url(#SVGID_28_);stroke-width:4;stroke-miterlimit:10;}
	.st40{fill:url(#SVGID_29_);}
	.st41{fill:url(#SVGID_30_);}
</style>
<g>
	<g>
		<g>
			<g>
				<path class="st26" d="M37.93,87.4c16.35-36.45,52.93-61.85,95.47-61.85c41.21,0,76.84,23.84,93.89,58.48l16.92-6.96
					C224.1,35.04,181.18,6.01,131.48,6.01c-50.15,0-93.38,29.57-113.26,72.22L37.93,87.4z"/>
				<path class="st27" d="M34.42,164.02c-3.63-10.62-5.63-22-5.63-33.86c0-11.07,1.73-21.74,4.92-31.75l-20.09-8.9
					c-4.56,12.96-7.06,26.89-7.06,41.41c0,15.19,2.72,29.75,7.68,43.21L34.42,164.02z"/>
				<path class="st28" d="M248.02,172.19c4.55-12.91,7.04-26.79,7.04-41.26c0-14.93-2.64-29.25-7.47-42.51l-16.93,6.59
					c3.94,10.98,6.1,22.81,6.1,35.15c0,12.2-2.12,23.89-5.97,34.77L248.02,172.19z"/>
				<path class="st29" d="M227.5,175.89c-16.38,33.66-50.29,57.19-89.85,58.78l2.03,20.89c46.66-3.03,86.32-31.66,105.09-72
					L227.5,175.89z"/>
				<path class="st30" d="M125.97,234.48c-38.56-2.71-71.35-26.29-87.12-59.54l-19.82,10.42c19.7,40.63,60.78,68.94,108.62,70.39
					L125.97,234.48z"/>
				<g>
					<path class="st31" d="M66.76,100.76c11.23-24.47,35.93-41.48,64.62-41.48c28.24,0,52.62,16.46,64.09,40.31l16.75-6.25
						c-13.35-31.23-44.35-53.12-80.46-53.12c-35.88,0-66.7,21.61-80.19,52.52L66.76,100.76z"/>
				</g>
				<path class="st32" d="M97.68,113.13c7.19-11.6,20-19.36,34.65-19.36c14.09,0,26.51,7.15,33.84,18.01l15.79-5.87
					c-9.25-18.37-28.23-31.01-50.2-31.01c-22.18,0-41.31,12.88-50.45,31.54L97.68,113.13z"/>
			</g>
			<path class="st33" d="M168.8,156.7c-7.83-23.41-37.23-45.59-37.23-45.59c-35.88,27.22-39.79,50-40.17,53.16
				c-0.37,2.11-0.61,4.27-0.61,6.49c0,21.37,18.09,38.69,40.4,38.69s40.4-17.32,40.4-38.69C171.6,165.79,170.58,161.06,168.8,156.7z
				 M153.27,152c-0.49,7.03-8.62,11.27-14.43,7.27c-1.4-0.97-2.66-2.43-3.45-4.62c-2.86-7.91-0.29-20.87,0.86-25.06
				c0,0,15.91,8.19,16.96,19.06C153.33,149.89,153.34,151,153.27,152z"/>
		</g>
		<g>
		</g>
	</g>
</g>
</svg>
